<svg xmlns="http://www.w3.org/2000/svg" viewBox="0 0 1200 900" role="img" aria-labelledby="title desc">
  <title id="title">Demo metro station entrance</title>
  <desc id="desc">A stylized metro station entrance with signage, elevator marker, road, and pedestrian access.</desc>
  <rect width="1200" height="900" fill="#e2e8f0"/>
  <rect y="570" width="1200" height="330" fill="#475569"/>
  <rect x="0" y="640" width="1200" height="56" fill="#cbd5e1"/>
  <rect x="60" y="660" width="120" height="16" fill="#f8fafc"/>
  <rect x="270" y="660" width="120" height="16" fill="#f8fafc"/>
  <rect x="480" y="660" width="120" height="16" fill="#f8fafc"/>
  <rect x="690" y="660" width="120" height="16" fill="#f8fafc"/>
  <rect x="900" y="660" width="120" height="16" fill="#f8fafc"/>
  <rect x="180" y="190" width="760" height="410" rx="12" fill="#f8fafc" stroke="#0f172a" stroke-width="8"/>
  <rect x="220" y="250" width="680" height="80" rx="8" fill="#2563eb"/>
  <text x="560" y="303" text-anchor="middle" font-family="Arial, sans-serif" font-size="42" font-weight="700" fill="#ffffff">CITY METRO</text>
  <rect x="300" y="360" width="220" height="240" fill="#0f172a"/>
  <rect x="560" y="360" width="250" height="240" fill="#dbeafe" stroke="#0f172a" stroke-width="6"/>
  <line x1="685" y1="360" x2="685" y2="600" stroke="#0f172a" stroke-width="5"/>
  <text x="410" y="505" text-anchor="middle" font-family="Arial, sans-serif" font-size="34" font-weight="700" fill="#ffffff">Entrance B</text>
  <circle cx="875" cy="420" r="42" fill="#10b981"/>
  <text x="875" y="434" text-anchor="middle" font-family="Arial, sans-serif" font-size="42" font-weight="700" fill="#ffffff">E</text>
  <text x="875" y="490" text-anchor="middle" font-family="Arial, sans-serif" font-size="28" font-weight="700" fill="#0f172a">Elevator</text>
  <rect x="120" y="600" width="920" height="70" fill="#94a3b8"/>
  <path d="M130 640 C250 612 370 612 490 640 S740 668 910 640" fill="none" stroke="#10b981" stroke-width="18" stroke-linecap="round"/>
  <rect x="88" y="300" width="76" height="280" fill="#64748b"/>
  <rect x="970" y="260" width="72" height="320" fill="#64748b"/>
  <circle cx="1020" cy="210" r="44" fill="#f59e0b"/>
  <rect x="730" y="700" width="230" height="96" rx="18" fill="#0f172a"/>
  <circle cx="790" cy="795" r="42" fill="#111827"/>
  <circle cx="900" cy="795" r="42" fill="#111827"/>
  <rect x="90" y="706" width="92" height="138" rx="10" fill="#1d4ed8"/>
  <circle cx="136" cy="680" r="34" fill="#f8fafc"/>
  <rect x="210" y="714" width="90" height="130" rx="10" fill="#0f766e"/>
  <circle cx="255" cy="690" r="32" fill="#f8fafc"/>
</svg>
